  0
SECTION
  2
HEADER
  9
$ACADVER
  1
AC1015
  9
$ACADMAINTVER
 70
6
  9
$DWGCODEPAGE
  3
ANSI_1252
  9
$INSBASE
 10
0.0
 20
0.0
 30
0.0
  9
$EXTMIN
 10
1e+20
 20
1e+20
 30
1e+20
  9
$EXTMAX
 10
-1e+20
 20
-1e+20
 30
-1e+20
  9
$LIMMIN
 10
0.0
 20
0.0
  9
$LIMMAX
 10
420.0
 20
297.0
  9
$ORTHOMODE
 70
0
  9
$REGENMODE
 70
1
  9
$FILLMODE
 70
1
  9
$QTEXTMODE
 70
0
  9
$MIRRTEXT
 70
1
  9
$LTSCALE
 40
1.0
  9
$ATTMODE
 70
1
  9
$TEXTSIZE
 40
2.5
  9
$TRACEWID
 40
1.0
  9
$TEXTSTYLE
  7
Standard
  9
$CLAYER
  8
0
  9
$CELTYPE
  6
ByLayer
  9
$CECOLOR
 62
256
  9
$CELTSCALE
 40
1.0
  9
$DISPSILH
 70
0
  9
$DIMSCALE
 40
1.0
  9
$DIMASZ
 40
2.5
  9
$DIMEXO
 40
0.625
  9
$DIMDLI
 40
3.75
  9
$DIMRND
 40
0.0
  9
$DIMDLE
 40
0.0
  9
$DIMEXE
 40
1.25
  9
$DIMTP
 40
0.0
  9
$DIMTM
 40
0.0
  9
$DIMTXT
 40
2.5
  9
$DIMCEN
 40
2.5
  9
$DIMTSZ
 40
0.0
  9
$DIMTOL
 70
0
  9
$DIMLIM
 70
0
  9
$DIMTIH
 70
0
  9
$DIMTOH
 70
0
  9
$DIMSE1
 70
0
  9
$DIMSE2
 70
0
  9
$DIMTAD
 70
1
  9
$DIMZIN
 70
8
  9
$DIMBLK
  1

  9
$DIMASO
 70
1
  9
$DIMSHO
 70
1
  9
$DIMPOST
  1

  9
$DIMAPOST
  1

  9
$DIMALT
 70
0
  9
$DIMALTD
 70
3
  9
$DIMALTF
 40
0.03937007874
  9
$DIMLFAC
 40
1.0
  9
$DIMTOFL
 70
1
  9
$DIMTVP
 40
0.0
  9
$DIMTIX
 70
0
  9
$DIMSOXD
 70
0
  9
$DIMSAH
 70
0
  9
$DIMBLK1
  1

  9
$DIMBLK2
  1

  9
$DIMSTYLE
  2
ISO-25
  9
$DIMCLRD
 70
0
  9
$DIMCLRE
 70
0
  9
$DIMCLRT
 70
0
  9
$DIMTFAC
 40
1.0
  9
$DIMGAP
 40
0.625
  9
$DIMJUST
 70
0
  9
$DIMSD1
 70
0
  9
$DIMSD2
 70
0
  9
$DIMTOLJ
 70
0
  9
$DIMTZIN
 70
8
  9
$DIMALTZ
 70
0
  9
$DIMALTTZ
 70
0
  9
$DIMUPT
 70
0
  9
$DIMDEC
 70
2
  9
$DIMTDEC
 70
2
  9
$DIMALTU
 70
2
  9
$DIMALTTD
 70
3
  9
$DIMTXSTY
  7
Standard
  9
$DIMAUNIT
 70
0
  9
$DIMADEC
 70
0
  9
$DIMALTRND
 40
0.0
  9
$DIMAZIN
 70
0
  9
$DIMDSEP
 70
44
  9
$DIMATFIT
 70
3
  9
$DIMFRAC
 70
0
  9
$DIMLDRBLK
  1

  9
$DIMLUNIT
 70
2
  9
$DIMLWD
 70
-2
  9
$DIMLWE
 70
-2
  9
$DIMTMOVE
 70
0
  9
$LUNITS
 70
2
  9
$LUPREC
 70
4
  9
$SKETCHINC
 40
1.0
  9
$FILLETRAD
 40
10.0
  9
$AUNITS
 70
0
  9
$AUPREC
 70
2
  9
$MENU
  1
.
  9
$ELEVATION
 40
0.0
  9
$PELEVATION
 40
0.0
  9
$THICKNESS
 40
0.0
  9
$LIMCHECK
 70
0
  9
$CHAMFERA
 40
0.0
  9
$CHAMFERB
 40
0.0
  9
$CHAMFERC
 40
0.0
  9
$CHAMFERD
 40
0.0
  9
$SKPOLY
 70
0
  9
$TDCREATE
 40
2461114.6944212965
  9
$TDUCREATE
 40
2458532.153996898
  9
$TDUPDATE
 40
2461114.6944212965
  9
$TDUUPDATE
 40
2458532.1544311
  9
$TDINDWG
 40
0.0
  9
$TDUSRTIMER
 40
0.0
  9
$USRTIMER
 70
1
  9
$ANGBASE
 50
0.0
  9
$ANGDIR
 70
0
  9
$PDMODE
 70
0
  9
$PDSIZE
 40
0.0
  9
$PLINEWID
 40
0.0
  9
$SPLFRAME
 70
0
  9
$SPLINETYPE
 70
6
  9
$SPLINESEGS
 70
8
  9
$HANDSEED
  5
67
  9
$SURFTAB1
 70
6
  9
$SURFTAB2
 70
6
  9
$SURFTYPE
 70
6
  9
$SURFU
 70
6
  9
$SURFV
 70
6
  9
$UCSBASE
  2

  9
$UCSNAME
  2

  9
$UCSORG
 10
0.0
 20
0.0
 30
0.0
  9
$UCSXDIR
 10
1.0
 20
0.0
 30
0.0
  9
$UCSYDIR
 10
0.0
 20
1.0
 30
0.0
  9
$UCSORTHOREF
  2

  9
$UCSORTHOVIEW
 70
0
  9
$UCSORGTOP
 10
0.0
 20
0.0
 30
0.0
  9
$UCSORGBOTTOM
 10
0.0
 20
0.0
 30
0.0
  9
$UCSORGLEFT
 10
0.0
 20
0.0
 30
0.0
  9
$UCSORGRIGHT
 10
0.0
 20
0.0
 30
0.0
  9
$UCSORGFRONT
 10
0.0
 20
0.0
 30
0.0
  9
$UCSORGBACK
 10
0.0
 20
0.0
 30
0.0
  9
$PUCSBASE
  2

  9
$PUCSNAME
  2

  9
$PUCSORG
 10
0.0
 20
0.0
 30
0.0
  9
$PUCSXDIR
 10
1.0
 20
0.0
 30
0.0
  9
$PUCSYDIR
 10
0.0
 20
1.0
 30
0.0
  9
$PUCSORTHOREF
  2

  9
$PUCSORTHOVIEW
 70
0
  9
$PUCSORGTOP
 10
0.0
 20
0.0
 30
0.0
  9
$PUCSORGBOTTOM
 10
0.0
 20
0.0
 30
0.0
  9
$PUCSORGLEFT
 10
0.0
 20
0.0
 30
0.0
  9
$PUCSORGRIGHT
 10
0.0
 20
0.0
 30
0.0
  9
$PUCSORGFRONT
 10
0.0
 20
0.0
 30
0.0
  9
$PUCSORGBACK
 10
0.0
 20
0.0
 30
0.0
  9
$USERI1
 70
0
  9
$USERI2
 70
0
  9
$USERI3
 70
0
  9
$USERI4
 70
0
  9
$USERI5
 70
0
  9
$USERR1
 40
0.0
  9
$USERR2
 40
0.0
  9
$USERR3
 40
0.0
  9
$USERR4
 40
0.0
  9
$USERR5
 40
0.0
  9
$WORLDVIEW
 70
1
  9
$SHADEDGE
 70
3
  9
$SHADEDIF
 70
70
  9
$TILEMODE
 70
1
  9
$MAXACTVP
 70
64
  9
$PINSBASE
 10
0.0
 20
0.0
 30
0.0
  9
$PLIMCHECK
 70
0
  9
$PEXTMIN
 10
1e+20
 20
1e+20
 30
1e+20
  9
$PEXTMAX
 10
-1e+20
 20
-1e+20
 30
-1e+20
  9
$PLIMMIN
 10
0.0
 20
0.0
  9
$PLIMMAX
 10
420.0
 20
297.0
  9
$UNITMODE
 70
0
  9
$VISRETAIN
 70
1
  9
$PLINEGEN
 70
0
  9
$PSLTSCALE
 70
1
  9
$TREEDEPTH
 70
3020
  9
$CMLSTYLE
  2
Standard
  9
$CMLJUST
 70
0
  9
$CMLSCALE
 40
20.0
  9
$PROXYGRAPHICS
 70
1
  9
$MEASUREMENT
 70
1
  9
$CELWEIGHT
370
-1
  9
$ENDCAPS
280
0
  9
$JOINSTYLE
280
0
  9
$LWDISPLAY
290
0
  9
$INSUNITS
 70
1
  9
$HYPERLINKBASE
  1

  9
$STYLESHEET
  1

  9
$XEDIT
290
1
  9
$CEPSNTYPE
380
0
  9
$PSTYLEMODE
290
1
  9
$FINGERPRINTGUID
  2
{2F7DBD15-9D1C-44FB-892A-7261064EE61A}
  9
$VERSIONGUID
  2
{332E5F77-C59F-4A1A-97A0-59E698F0551A}
  9
$EXTNAMES
290
1
  9
$PSVPSCALE
 40
0.0
  9
$OLESTARTUP
290
0
  0
ENDSEC
  0
SECTION
  2
CLASSES
  0
CLASS
  1
ACDBDICTIONARYWDFLT
  2
AcDbDictionaryWithDefault
  3
ObjectDBX Classes
 90
0
280
0
281
0
  0
CLASS
  1
SUN
  2
AcDbSun
  3
SCENEOE
 90
1153
280
0
281
0
  0
CLASS
  1
VISUALSTYLE
  2
AcDbVisualStyle
  3
ObjectDBX Classes
 90
4095
280
0
281
0
  0
CLASS
  1
MATERIAL
  2
AcDbMaterial
  3
ObjectDBX Classes
 90
1153
280
0
281
0
  0
CLASS
  1
SCALE
  2
AcDbScale
  3
ObjectDBX Classes
 90
1153
280
0
281
0
  0
CLASS
  1
TABLESTYLE
  2
AcDbTableStyle
  3
ObjectDBX Classes
 90
4095
280
0
281
0
  0
CLASS
  1
MLEADERSTYLE
  2
AcDbMLeaderStyle
  3
ACDB_MLEADERSTYLE_CLASS
 90
4095
280
0
281
0
  0
CLASS
  1
DICTIONARYVAR
  2
AcDbDictionaryVar
  3
ObjectDBX Classes
 90
0
280
0
281
0
  0
CLASS
  1
CELLSTYLEMAP
  2
AcDbCellStyleMap
  3
ObjectDBX Classes
 90
1152
280
0
281
0
  0
CLASS
  1
MENTALRAYRENDERSETTINGS
  2
AcDbMentalRayRenderSettings
  3
SCENEOE
 90
1024
280
0
281
0
  0
CLASS
  1
ACDBDETAILVIEWSTYLE
  2
AcDbDetailViewStyle
  3
ObjectDBX Classes
 90
1025
280
0
281
0
  0
CLASS
  1
ACDBSECTIONVIEWSTYLE
  2
AcDbSectionViewStyle
  3
ObjectDBX Classes
 90
1025
280
0
281
0
  0
CLASS
  1
RASTERVARIABLES
  2
AcDbRasterVariables
  3
ISM
 90
0
280
0
281
0
  0
CLASS
  1
ACDBPLACEHOLDER
  2
AcDbPlaceHolder
  3
ObjectDBX Classes
 90
0
280
0
281
0
  0
CLASS
  1
LAYOUT
  2
AcDbLayout
  3
ObjectDBX Classes
 90
0
280
0
281
0
  0
ENDSEC
  0
SECTION
  2
TABLES
  0
TABLE
  2
VPORT
  5
8
330
0
100
AcDbSymbolTable
 70
1
  0
VPORT
  5
23
330
8
100
AcDbSymbolTableRecord
100
AcDbViewportTableRecord
  2
*Active
 70
0
 10
0.0
 20
0.0
 11
1.0
 21
1.0
 12
0.0
 22
0.0
 13
0.0
 23
0.0
 14
0.5
 24
0.5
 15
0.5
 25
0.5
 16
0.0
 26
0.0
 36
1.0
 17
0.0
 27
0.0
 37
0.0
 40
1000.0
 41
1.34
 42
50.0
 43
0.0
 44
0.0
 50
0.0
 51
0.0
 71
0
 72
1000
 73
1
 74
3
 75
0
 76
0
 77
0
 78
0
281
0
 65
0
146
0.0
  0
ENDTAB
  0
TABLE
  2
LTYPE
  5
2
330
0
100
AcDbSymbolTable
 70
3
  0
LTYPE
  5
24
330
2
100
AcDbSymbolTableRecord
100
AcDbLinetypeTableRecord
  2
ByBlock
 70
0
  3

 72
65
 73
0
 40
0.0
  0
LTYPE
  5
25
330
2
100
AcDbSymbolTableRecord
100
AcDbLinetypeTableRecord
  2
ByLayer
 70
0
  3

 72
65
 73
0
 40
0.0
  0
LTYPE
  5
26
330
2
100
AcDbSymbolTableRecord
100
AcDbLinetypeTableRecord
  2
Continuous
 70
0
  3

 72
65
 73
0
 40
0.0
  0
ENDTAB
  0
TABLE
  2
LAYER
  5
1
330
0
100
AcDbSymbolTable
 70
8
  0
LAYER
  5
27
330
1
100
AcDbSymbolTableRecord
100
AcDbLayerTableRecord
  2
0
 70
0
 62
7
  6
Continuous
370
-3
390
13
  0
LAYER
  5
28
330
1
100
AcDbSymbolTableRecord
100
AcDbLayerTableRecord
  2
Defpoints
 70
0
 62
7
  6
Continuous
290
0
370
-3
390
13
  0
LAYER
  5
2F
330
1
100
AcDbSymbolTableRecord
100
AcDbLayerTableRecord
  2
CUT
 70
0
 62
7
  6
CONTINUOUS
370
-3
390
13
  0
LAYER
  5
30
330
1
100
AcDbSymbolTableRecord
100
AcDbLayerTableRecord
  2
SEAM_ALLOWANCE
 70
0
 62
8
  6
DASHED
370
-3
390
13
  0
LAYER
  5
31
330
1
100
AcDbSymbolTableRecord
100
AcDbLayerTableRecord
  2
GRAIN
 70
0
 62
3
  6
CENTER
370
-3
390
13
  0
LAYER
  5
32
330
1
100
AcDbSymbolTableRecord
100
AcDbLayerTableRecord
  2
NOTCH
 70
0
 62
1
  6
CONTINUOUS
370
-3
390
13
  0
LAYER
  5
33
330
1
100
AcDbSymbolTableRecord
100
AcDbLayerTableRecord
  2
INTERNAL
 70
0
 62
6
  6
DOTTED
370
-3
390
13
  0
LAYER
  5
34
330
1
100
AcDbSymbolTableRecord
100
AcDbLayerTableRecord
  2
TEXT
 70
0
 62
2
  6
CONTINUOUS
370
-3
390
13
  0
ENDTAB
  0
TABLE
  2
STYLE
  5
5
330
0
100
AcDbSymbolTable
 70
1
  0
STYLE
  5
29
330
5
100
AcDbSymbolTableRecord
100
AcDbTextStyleTableRecord
  2
Standard
 70
0
 40
0.0
 41
1.0
 50
0.0
 71
0
 42
2.5
  3
txt
  4

  0
ENDTAB
  0
TABLE
  2
VIEW
  5
7
330
0
100
AcDbSymbolTable
 70
0
  0
ENDTAB
  0
TABLE
  2
UCS
  5
6
330
0
100
AcDbSymbolTable
 70
0
  0
ENDTAB
  0
TABLE
  2
APPID
  5
3
330
0
100
AcDbSymbolTable
 70
3
  0
APPID
  5
2A
330
3
100
AcDbSymbolTableRecord
100
AcDbRegAppTableRecord
  2
ACAD
 70
0
  0
APPID
  5
64
330
3
100
AcDbSymbolTableRecord
100
AcDbRegAppTableRecord
  2
HATCHBACKGROUNDCOLOR
 70
0
  0
APPID
  5
65
330
3
100
AcDbSymbolTableRecord
100
AcDbRegAppTableRecord
  2
EZDXF
 70
0
  0
ENDTAB
  0
TABLE
  2
DIMSTYLE
  5
4
330
0
100
AcDbSymbolTable
 70
1
100
AcDbDimStyleTable
  0
DIMSTYLE
105
2B
330
4
100
AcDbSymbolTableRecord
100
AcDbDimStyleTableRecord
  2
Standard
 70
0
  3

  4

 40
1.0
 41
2.5
 42
0.625
 43
3.75
 44
1.25
 45
0.0
 46
0.0
 47
0.0
 48
0.0
140
2.5
141
2.5
142
0.0
143
0.03937007874
144
1.0
145
0.0
146
1.0
147
0.625
148
0.0
 71
0
 72
0
 73
0
 74
0
 75
0
 76
0
 77
1
 78
8
 79
3
170
0
171
3
172
1
173
0
174
0
175
0
176
0
177
0
178
0
179
2
271
2
272
2
273
2
274
3
275
0
276
0
277
2
278
44
279
0
280
0
281
0
282
0
283
0
284
8
285
0
286
0
288
0
289
3
371
-2
372
-2
  0
ENDTAB
  0
TABLE
  2
BLOCK_RECORD
  5
9
330
0
100
AcDbSymbolTable
 70
2
  0
BLOCK_RECORD
  5
17
330
9
100
AcDbSymbolTableRecord
100
AcDbBlockTableRecord
  2
*Model_Space
340
1A
  0
BLOCK_RECORD
  5
1B
330
9
100
AcDbSymbolTableRecord
100
AcDbBlockTableRecord
  2
*Paper_Space
340
1E
  0
ENDTAB
  0
ENDSEC
  0
SECTION
  2
BLOCKS
  0
BLOCK
  5
18
330
17
100
AcDbEntity
  8
0
100
AcDbBlockBegin
  2
*Model_Space
 70
0
 10
0.0
 20
0.0
 30
0.0
  3
*Model_Space
  1

  0
ENDBLK
  5
19
330
17
100
AcDbEntity
  8
0
100
AcDbBlockEnd
  0
BLOCK
  5
1C
330
1B
100
AcDbEntity
  8
0
100
AcDbBlockBegin
  2
*Paper_Space
 70
0
 10
0.0
 20
0.0
 30
0.0
  3
*Paper_Space
  1

  0
ENDBLK
  5
1D
330
1B
100
AcDbEntity
  8
0
100
AcDbBlockEnd
  0
ENDSEC
  0
SECTION
  2
ENTITIES
  0
LWPOLYLINE
  5
35
330
17
100
AcDbEntity
  8
CUT
100
AcDbPolyline
 90
33
 70
1
 10
3.25
 20
0.0
 10
12.0
 20
0.0
 10
16.21
 20
8.415000000000001
 10
6.925
 20
12.75
 10
8.275
 20
27.0
 10
9.625
 20
40.5
 10
3.56875
 20
40.5
 10
3.652
 20
27.0
 10
0.0
 20
12.75
 10
0.13541666666666652
 20
12.75
 10
0.2708333333333335
 20
12.75
 10
0.40625
 20
12.75
 10
0.5416666666666665
 20
12.75
 10
0.6770833333333339
 20
12.75
 10
0.8125
 20
12.75
 10
0.9479166666666665
 20
12.75
 10
1.083333333333333
 20
12.75
 10
1.21875
 20
12.75
 10
1.3541666666666665
 20
12.75
 10
1.4895833333333335
 20
12.75
 10
1.625
 20
12.75
 10
1.7604166666666665
 20
12.750000000000002
 10
1.8958333333333335
 20
12.75
 10
2.03125
 20
12.75
 10
2.1666666666666665
 20
12.750000000000002
 10
2.302083333333333
 20
12.75
 10
2.4375
 20
12.75
 10
2.5729166666666665
 20
12.749999999999998
 10
2.7083333333333335
 20
12.750000000000002
 10
2.84375
 20
12.75
 10
2.9791666666666665
 20
12.749999999999998
 10
3.1145833333333335
 20
12.75
 10
3.25
 20
12.75
  0
LWPOLYLINE
  5
36
330
17
100
AcDbEntity
  8
SEAM_ALLOWANCE
100
AcDbPolyline
 90
33
 70
1
 10
3.875
 20
0.625
 10
11.61383137886129
 20
0.625
 10
15.363730652141497
 20
8.120344984478137
 10
6.261215399616899
 20
12.370146128225485
 10
7.652939635676197
 20
27.06056861996252
 10
8.934382773679943
 20
39.875
 10
4.197616050234247
 20
39.875
 10
4.277486205159365
 20
26.92308298511597
 10
0.8053739903071868
 20
13.375
 10
0.13541666666666652
 20
13.375
 10
0.2708333333333335
 20
13.375
 10
0.40625
 20
13.375
 10
0.5416666666666665
 20
13.375
 10
0.6770833333333339
 20
13.375
 10
0.8125
 20
13.375
 10
0.9479166666666665
 20
13.375
 10
1.083333333333333
 20
13.375
 10
1.21875
 20
13.375
 10
1.3541666666666665
 20
13.375
 10
1.4895833333333335
 20
13.375
 10
1.625
 20
13.375
 10
1.7604166666666583
 20
13.375000000000002
 10
1.8958333333333417
 20
13.375
 10
2.03125
 20
13.375
 10
2.166666666666658
 20
13.375000000000002
 10
2.3020833333333415
 20
13.375
 10
2.4375
 20
13.375
 10
2.572916666666675
 20
13.374999999999998
 10
2.708333333333317
 20
13.375000000000002
 10
2.843750000000008
 20
13.375
 10
2.979166666666675
 20
13.374999999999998
 10
3.114583333333325
 20
13.375
 10
3.875
 20
13.375
  0
LWPOLYLINE
  5
37
330
17
100
AcDbEntity
  8
INTERNAL
100
AcDbPolyline
 90
2
 70
0
 10
12.0
 20
1.0
 10
6.370834875401148
 20
4.25
  0
LWPOLYLINE
  5
38
330
17
100
AcDbEntity
  8
GRAIN
100
AcDbPolyline
 90
2
 70
0
 10
4.8125
 20
8.415000000000001
 10
4.8125
 20
38.5
  0
LINE
  5
39
330
17
100
AcDbEntity
  8
NOTCH
100
AcDbLine
 10
8.15
 20
27.0
 30
0.0
 11
8.4
 21
27.0
 31
0.0
  0
LINE
  5
3A
330
17
100
AcDbEntity
  8
NOTCH
100
AcDbLine
 10
3.527
 20
27.0
 30
0.0
 11
3.777
 21
27.0
 31
0.0
  0
LINE
  5
3B
330
17
100
AcDbEntity
  8
NOTCH
100
AcDbLine
 10
6.8
 20
12.75
 30
0.0
 11
7.05
 21
12.75
 31
0.0
  0
TEXT
  5
3C
330
17
100
AcDbEntity
  8
TEXT
100
AcDbText
 10
8.105
 20
20.25
 30
0.0
 40
0.25
  1
Front Panel
 72
1
 11
8.105
 21
20.25
 31
0.0
100
AcDbText
 73
2
  0
LWPOLYLINE
  5
3D
330
17
100
AcDbEntity
  8
CUT
100
AcDbPolyline
 90
37
 70
1
 10
23.96
 20
0.0
 10
30.71
 20
1.0
 10
38.0
 20
9.415000000000001
 10
27.785
 20
15.75
 10
28.935000000000002
 20
29.5
 10
30.085
 20
41.8
 10
24.26625
 20
41.8
 10
24.358
 20
29.5
 10
19.21
 20
15.75
 10
19.37964285714286
 20
15.75
 10
19.549285714285716
 20
15.75
 10
19.71892857142857
 20
15.749999999999998
 10
19.88857142857143
 20
15.75
 10
20.058214285714286
 20
15.75
 10
20.227857142857143
 20
15.75
 10
20.3975
 20
15.75
 10
20.56714285714286
 20
15.75
 10
20.736785714285716
 20
15.75
 10
20.90642857142857
 20
15.75
 10
21.07607142857143
 20
15.75
 10
21.245714285714286
 20
15.75
 10
21.415357142857143
 20
15.75
 10
21.585
 20
15.75
 10
21.75464285714286
 20
15.75
 10
21.924285714285716
 20
15.749999999999996
 10
22.09392857142857
 20
15.750000000000002
 10
22.26357142857143
 20
15.749999999999998
 10
22.433214285714286
 20
15.750000000000002
 10
22.602857142857143
 20
15.75
 10
22.7725
 20
15.75
 10
22.94214285714286
 20
15.749999999999998
 10
23.111785714285716
 20
15.749999999999998
 10
23.28142857142857
 20
15.750000000000002
 10
23.45107142857143
 20
15.75
 10
23.620714285714286
 20
15.75
 10
23.790357142857143
 20
15.75
 10
23.96
 20
15.75
  0
LWPOLYLINE
  5
3E
330
17
100
AcDbEntity
  8
SEAM_ALLOWANCE
100
AcDbPolyline
 90
37
 70
1
 10
24.585
 20
0.7244140770350084
 10
30.38927729268735
 20
1.5843070092849858
 10
37.047636477615114
 20
9.270190759788026
 10
27.130268808740876
 20
15.420609181943515
 10
28.312429346921842
 20
29.555137355846377
 10
29.398839268936207
 20
41.175
 10
24.895929481346677
 20
41.175
 10
24.98384469074499
 20
29.389091819081614
 10
20.111368713680825
 20
16.375
 10
19.37964285714286
 20
16.375
 10
19.549285714285716
 20
16.375
 10
19.718928571428577
 20
16.375
 10
19.888571428571424
 20
16.375
 10
20.058214285714286
 20
16.375
 10
20.227857142857143
 20
16.375
 10
20.3975
 20
16.375
 10
20.56714285714286
 20
16.375
 10
20.736785714285716
 20
16.375
 10
20.90642857142857
 20
16.375
 10
21.07607142857143
 20
16.375
 10
21.245714285714286
 20
16.375
 10
21.415357142857143
 20
16.375
 10
21.585
 20
16.375
 10
21.75464285714286
 20
16.375
 10
21.924285714285727
 20
16.374999999999996
 10
22.093928571428552
 20
16.375
 10
22.263571428571442
 20
16.375
 10
22.43321428571427
 20
16.375
 10
22.60285714285715
 20
16.375
 10
22.7725
 20
16.375
 10
22.942142857142866
 20
16.375
 10
23.111785714285716
 20
16.375
 10
23.28142857142856
 20
16.375
 10
23.451071428571435
 20
16.375
 10
23.620714285714286
 20
16.375
 10
23.790357142857143
 20
16.375
 10
24.585
 20
16.375
  0
LWPOLYLINE
  5
3F
330
17
100
AcDbEntity
  8
INTERNAL
100
AcDbPolyline
 90
2
 70
0
 10
27.9492
 20
11.665000000000001
 10
33.449200000000005
 20
11.665000000000001
  0
LWPOLYLINE
  5
40
330
17
100
AcDbEntity
  8
GRAIN
100
AcDbPolyline
 90
2
 70
0
 10
24.6475
 20
9.415000000000001
 10
24.6475
 20
39.8
  0
LINE
  5
41
330
17
100
AcDbEntity
  8
NOTCH
100
AcDbLine
 10
28.810000000000002
 20
29.5
 30
0.0
 11
29.060000000000002
 21
29.5
 31
0.0
  0
LINE
  5
42
330
17
100
AcDbEntity
  8
NOTCH
100
AcDbLine
 10
24.233
 20
29.5
 30
0.0
 11
24.483
 21
29.5
 31
0.0
  0
LINE
  5
43
330
17
100
AcDbEntity
  8
NOTCH
100
AcDbLine
 10
27.66
 20
15.75
 30
0.0
 11
27.91
 21
15.75
 31
0.0
  0
TEXT
  5
44
330
17
100
AcDbEntity
  8
TEXT
100
AcDbText
 10
28.605
 20
20.9
 30
0.0
 40
0.25
  1
Back Panel
 72
1
 11
28.605
 21
20.9
 31
0.0
100
AcDbText
 73
2
  0
LWPOLYLINE
  5
45
330
17
100
AcDbEntity
  8
CUT
100
AcDbPolyline
 90
4
 70
1
 10
41.0
 20
0.0
 10
57.125
 20
0.0
 10
57.125
 20
3.5
 10
41.0
 20
3.5
  0
LWPOLYLINE
  5
46
330
17
100
AcDbEntity
  8
SEAM_ALLOWANCE
100
AcDbPolyline
 90
4
 70
1
 10
41.625
 20
0.625
 10
56.5
 20
0.625
 10
56.5
 20
2.875
 10
41.625
 20
2.875
  0
LWPOLYLINE
  5
47
330
17
100
AcDbEntity
  8
INTERNAL
100
AcDbPolyline
 90
2
 70
0
 10
49.0625
 20
0.0
 10
49.0625
 20
3.5
  0
LWPOLYLINE
  5
48
330
17
100
AcDbEntity
  8
INTERNAL
100
AcDbPolyline
 90
2
 70
0
 10
45.03125
 20
0.0
 10
45.03125
 20
3.5
  0
LWPOLYLINE
  5
49
330
17
100
AcDbEntity
  8
INTERNAL
100
AcDbPolyline
 90
2
 70
0
 10
53.09375
 20
0.0
 10
53.09375
 20
3.5
  0
LWPOLYLINE
  5
4A
330
17
100
AcDbEntity
  8
GRAIN
100
AcDbPolyline
 90
2
 70
0
 10
49.0625
 20
0.5
 10
49.0625
 20
3.0
  0
TEXT
  5
4B
330
17
100
AcDbEntity
  8
TEXT
100
AcDbText
 10
49.0625
 20
1.75
 30
0.0
 40
0.25
  1
Waistband
 72
1
 11
49.0625
 21
1.75
 31
0.0
100
AcDbText
 73
2
  0
TEXT
  5
4C
330
17
100
AcDbEntity
  8
TEXT
100
AcDbText
 10
49.0625
 20
3.85
 30
0.0
 40
0.18
  1
CUT ON FOLD
 72
1
 11
49.0625
 21
3.85
 31
0.0
100
AcDbText
 73
2
  0
LWPOLYLINE
  5
4D
330
17
100
AcDbEntity
  8
CUT
100
AcDbPolyline
 90
24
 70
1
 10
60.125
 20
0.0
 10
62.625
 20
0.0
 10
62.625
 20
0.0
 10
62.544
 20
0.6425000000000001
 10
62.461
 20
1.2700000000000002
 10
62.376
 20
1.8824999999999998
 10
62.289
 20
2.4800000000000004
 10
62.2
 20
3.0625
 10
62.109
 20
3.63
 10
62.016
 20
4.182499999999999
 10
61.921
 20
4.720000000000001
 10
61.824
 20
5.242500000000001
 10
61.725
 20
5.75
 10
61.624
 20
6.2425
 10
61.521
 20
6.72
 10
61.416
 20
7.1825
 10
61.309
 20
7.63
 10
61.2
 20
8.0625
 10
61.089
 20
8.48
 10
60.976
 20
8.8825
 10
60.861
 20
9.270000000000001
 10
60.744
 20
9.642500000000002
 10
60.625
 20
10.0
 10
60.125
 20
10.0
  0
LWPOLYLINE
  5
4E
330
17
100
AcDbEntity
  8
GRAIN
100
AcDbPolyline
 90
2
 70
0
 10
61.375
 20
0.5
 10
61.375
 20
9.5
  0
TEXT
  5
4F
330
17
100
AcDbEntity
  8
TEXT
100
AcDbText
 10
61.375
 20
4.5
 30
0.0
 40
0.25
  1
Fly Shield
 72
1
 11
61.375
 21
4.5
 31
0.0
100
AcDbText
 73
2
  0
LWPOLYLINE
  5
50
330
17
100
AcDbEntity
  8
CUT
100
AcDbPolyline
 90
4
 70
1
 10
65.625
 20
0.0
 10
67.125
 20
0.0
 10
67.125
 20
10.0
 10
65.625
 20
10.0
  0
LWPOLYLINE
  5
51
330
17
100
AcDbEntity
  8
SEAM_ALLOWANCE
100
AcDbPolyline
 90
4
 70
1
 10
66.25
 20
0.625
 10
66.5
 20
0.625
 10
66.5
 20
9.375
 10
66.25
 20
9.375
  0
LWPOLYLINE
  5
52
330
17
100
AcDbEntity
  8
GRAIN
100
AcDbPolyline
 90
2
 70
0
 10
66.375
 20
0.5
 10
66.375
 20
9.5
  0
TEXT
  5
53
330
17
100
AcDbEntity
  8
TEXT
100
AcDbText
 10
66.375
 20
5.0
 30
0.0
 40
0.25
  1
Fly Extension
 72
1
 11
66.375
 21
5.0
 31
0.0
100
AcDbText
 73
2
  0
LWPOLYLINE
  5
54
330
17
100
AcDbEntity
  8
CUT
100
AcDbPolyline
 90
4
 70
1
 10
5.629165124598852
 20
43.8
 10
0.0
 20
47.05
 10
11.629165124598853
 20
54.3
 10
5.629165124598852
 20
54.3
  0
LWPOLYLINE
  5
55
330
17
100
AcDbEntity
  8
SEAM_ALLOWANCE
100
AcDbPolyline
 90
4
 70
1
 10
6.254165124598852
 20
42.71746824526945
 10
-1.214373528700694
 20
47.029431047205065
 10
9.445270429776507
 20
53.675
 10
6.254165124598852
 20
53.675
  0
LWPOLYLINE
  5
56
330
17
100
AcDbEntity
  8
GRAIN
100
AcDbPolyline
 90
2
 70
0
 10
8.629165124598853
 20
44.8
 10
8.629165124598853
 20
53.3
  0
TEXT
  5
57
330
17
100
AcDbEntity
  8
TEXT
100
AcDbText
 10
8.329165124598852
 20
48.525
 30
0.0
 40
0.25
  1
Front Pocket Bag
 72
1
 11
8.329165124598852
 21
48.525
 31
0.0
100
AcDbText
 73
2
  0
LWPOLYLINE
  5
58
330
17
100
AcDbEntity
  8
CUT
100
AcDbPolyline
 90
4
 70
1
 10
14.629165124598853
 20
43.8
 10
20.129165124598853
 20
43.8
 10
20.129165124598853
 20
45.3
 10
14.629165124598853
 20
45.3
  0
LWPOLYLINE
  5
59
330
17
100
AcDbEntity
  8
SEAM_ALLOWANCE
100
AcDbPolyline
 90
4
 70
1
 10
15.254165124598853
 20
44.425
 10
19.504165124598853
 20
44.425
 10
19.504165124598853
 20
44.675
 10
15.254165124598853
 20
44.675
  0
LWPOLYLINE
  5
5A
330
17
100
AcDbEntity
  8
GRAIN
100
AcDbPolyline
 90
2
 70
0
 10
17.379165124598853
 20
44.3
 10
17.379165124598853
 20
44.8
  0
TEXT
  5
5B
330
17
100
AcDbEntity
  8
TEXT
100
AcDbText
 10
17.379165124598853
 20
44.55
 30
0.0
 40
0.25
  1
Back Pocket Welt
 72
1
 11
17.379165124598853
 21
44.55
 31
0.0
100
AcDbText
 73
2
  0
LWPOLYLINE
  5
5C
330
17
100
AcDbEntity
  8
CUT
100
AcDbPolyline
 90
4
 70
1
 10
23.129165124598853
 20
43.8
 10
29.129165124598853
 20
43.8
 10
29.129165124598853
 20
50.8
 10
23.129165124598853
 20
50.8
  0
LWPOLYLINE
  5
5D
330
17
100
AcDbEntity
  8
SEAM_ALLOWANCE
100
AcDbPolyline
 90
4
 70
1
 10
23.754165124598853
 20
44.425
 10
28.504165124598853
 20
44.425
 10
28.504165124598853
 20
50.175
 10
23.754165124598853
 20
50.175
  0
LWPOLYLINE
  5
5E
330
17
100
AcDbEntity
  8
GRAIN
100
AcDbPolyline
 90
2
 70
0
 10
26.129165124598853
 20
44.3
 10
26.129165124598853
 20
50.3
  0
TEXT
  5
5F
330
17
100
AcDbEntity
  8
TEXT
100
AcDbText
 10
26.129165124598853
 20
47.3
 30
0.0
 40
0.25
  1
Back Pocket Bag
 72
1
 11
26.129165124598853
 21
47.3
 31
0.0
100
AcDbText
 73
2
  0
LWPOLYLINE
  5
60
330
17
100
AcDbEntity
  8
CUT
100
AcDbPolyline
 90
4
 70
1
 10
32.129165124598856
 20
43.8
 10
49.629165124598856
 20
43.8
 10
49.629165124598856
 20
45.3
 10
32.129165124598856
 20
45.3
  0
LWPOLYLINE
  5
61
330
17
100
AcDbEntity
  8
SEAM_ALLOWANCE
100
AcDbPolyline
 90
4
 70
1
 10
32.754165124598856
 20
44.425
 10
49.004165124598856
 20
44.425
 10
49.004165124598856
 20
44.675
 10
32.754165124598856
 20
44.675
  0
LWPOLYLINE
  5
62
330
17
100
AcDbEntity
  8
GRAIN
100
AcDbPolyline
 90
2
 70
0
 10
40.879165124598856
 20
44.3
 10
40.879165124598856
 20
44.8
  0
TEXT
  5
63
330
17
100
AcDbEntity
  8
TEXT
100
AcDbText
 10
40.879165124598856
 20
44.55
 30
0.0
 40
0.25
  1
Belt Loop Strip
 72
1
 11
40.879165124598856
 21
44.55
 31
0.0
100
AcDbText
 73
2
  0
ENDSEC
  0
SECTION
  2
OBJECTS
  0
DICTIONARY
  5
A
330
0
100
AcDbDictionary
281
1
  3
ACAD_COLOR
350
B
  3
ACAD_GROUP
350
C
  3
ACAD_LAYOUT
350
D
  3
ACAD_MATERIAL
350
E
  3
ACAD_MLEADERSTYLE
350
F
  3
ACAD_MLINESTYLE
350
10
  3
ACAD_PLOTSETTINGS
350
11
  3
ACAD_PLOTSTYLENAME
350
12
  3
ACAD_SCALELIST
350
14
  3
ACAD_TABLESTYLE
350
15
  3
ACAD_VISUALSTYLE
350
16
  3
EZDXF_META
350
2D
  0
DICTIONARY
  5
B
330
A
100
AcDbDictionary
281
1
  0
DICTIONARY
  5
C
330
A
100
AcDbDictionary
281
1
  0
DICTIONARY
  5
D
330
A
100
AcDbDictionary
281
1
  3
Model
350
1A
  3
Layout1
350
1E
  0
DICTIONARY
  5
E
330
A
100
AcDbDictionary
281
1
  3
ByBlock
350
1F
  3
ByLayer
350
20
  3
Global
350
21
  0
DICTIONARY
  5
F
330
A
100
AcDbDictionary
281
1
  3
Standard
350
2C
  0
DICTIONARY
  5
10
330
A
100
AcDbDictionary
281
1
  3
Standard
350
22
  0
DICTIONARY
  5
11
330
A
100
AcDbDictionary
281
1
  0
ACDBDICTIONARYWDFLT
  5
12
330
A
100
AcDbDictionary
281
1
  3
Normal
350
13
100
AcDbDictionaryWithDefault
340
13
  0
ACDBPLACEHOLDER
  5
13
330
12
  0
DICTIONARY
  5
14
330
A
100
AcDbDictionary
281
1
  0
DICTIONARY
  5
15
330
A
100
AcDbDictionary
281
1
  0
DICTIONARY
  5
16
330
A
100
AcDbDictionary
281
1
  0
LAYOUT
  5
1A
330
D
100
AcDbPlotSettings
  1

  4
A3
  6

 40
7.5
 41
20.0
 42
7.5
 43
20.0
 44
420.0
 45
297.0
 46
0.0
 47
0.0
 48
0.0
 49
0.0
140
0.0
141
0.0
142
1.0
143
1.0
 70
1024
 72
1
 73
0
 74
5
  7

 75
16
 76
0
 77
2
 78
300
147
1.0
148
0.0
149
0.0
100
AcDbLayout
  1
Model
 70
1
 71
0
 10
0.0
 20
0.0
 11
420.0
 21
297.0
 12
0.0
 22
0.0
 32
0.0
 14
1e+20
 24
1e+20
 34
1e+20
 15
-1e+20
 25
-1e+20
 35
-1e+20
146
0.0
 13
0.0
 23
0.0
 33
0.0
 16
1.0
 26
0.0
 36
0.0
 17
0.0
 27
1.0
 37
0.0
 76
1
330
17
  0
LAYOUT
  5
1E
330
D
100
AcDbPlotSettings
  1

  4
A3
  6

 40
7.5
 41
20.0
 42
7.5
 43
20.0
 44
420.0
 45
297.0
 46
0.0
 47
0.0
 48
0.0
 49
0.0
140
0.0
141
0.0
142
1.0
143
1.0
 70
0
 72
1
 73
0
 74
5
  7

 75
16
 76
0
 77
2
 78
300
147
1.0
148
0.0
149
0.0
100
AcDbLayout
  1
Layout1
 70
1
 71
1
 10
0.0
 20
0.0
 11
420.0
 21
297.0
 12
0.0
 22
0.0
 32
0.0
 14
1e+20
 24
1e+20
 34
1e+20
 15
-1e+20
 25
-1e+20
 35
-1e+20
146
0.0
 13
0.0
 23
0.0
 33
0.0
 16
1.0
 26
0.0
 36
0.0
 17
0.0
 27
1.0
 37
0.0
 76
1
330
1B
  0
MATERIAL
  5
1F
102
{ACAD_REACTORS
330
E
102
}
330
E
100
AcDbMaterial
  1
ByBlock
  2

 70
0
 40
1.0
 71
1
 41
1.0
 91
-1023410177
 42
1.0
 72
1
  3

 73
1
 74
1
 75
1
 44
0.5
 73
0
 45
1.0
 46
1.0
 77
1
  4

 78
1
 79
1
170
1
 48
1.0
171
1
  6

172
1
173
1
174
1
140
1.0
141
1.0
175
1
  7

176
1
177
1
178
1
143
1.0
179
1
  8

270
1
271
1
272
1
145
1.0
146
1.0
273
1
  9

274
1
275
1
276
1
 42
1.0
 72
1
  3

 73
1
 74
1
 75
1
 94
63
  0
MATERIAL
  5
20
102
{ACAD_REACTORS
330
E
102
}
330
E
100
AcDbMaterial
  1
ByLayer
  2

 70
0
 40
1.0
 71
1
 41
1.0
 91
-1023410177
 42
1.0
 72
1
  3

 73
1
 74
1
 75
1
 44
0.5
 73
0
 45
1.0
 46
1.0
 77
1
  4

 78
1
 79
1
170
1
 48
1.0
171
1
  6

172
1
173
1
174
1
140
1.0
141
1.0
175
1
  7

176
1
177
1
178
1
143
1.0
179
1
  8

270
1
271
1
272
1
145
1.0
146
1.0
273
1
  9

274
1
275
1
276
1
 42
1.0
 72
1
  3

 73
1
 74
1
 75
1
 94
63
  0
MATERIAL
  5
21
102
{ACAD_REACTORS
330
E
102
}
330
E
100
AcDbMaterial
  1
Global
  2

 70
0
 40
1.0
 71
1
 41
1.0
 91
-1023410177
 42
1.0
 72
1
  3

 73
1
 74
1
 75
1
 44
0.5
 73
0
 45
1.0
 46
1.0
 77
1
  4

 78
1
 79
1
170
1
 48
1.0
171
1
  6

172
1
173
1
174
1
140
1.0
141
1.0
175
1
  7

176
1
177
1
178
1
143
1.0
179
1
  8

270
1
271
1
272
1
145
1.0
146
1.0
273
1
  9

274
1
275
1
276
1
 42
1.0
 72
1
  3

 73
1
 74
1
 75
1
 94
63
  0
MLINESTYLE
  5
22
102
{ACAD_REACTORS
330
10
102
}
330
10
100
AcDbMlineStyle
  2
Standard
 70
0
  3

 62
256
 51
90.0
 52
90.0
 71
2
 49
0.5
 62
256
  6
BYLAYER
 49
-0.5
 62
256
  6
BYLAYER
  0
MLEADERSTYLE
  5
2C
102
{ACAD_REACTORS
330
F
102
}
330
F
100
AcDbMLeaderStyle
179
2
170
2
171
1
172
0
 90
2
 40
0.0
 41
0.0
173
1
 91
-1056964608
 92
-2
290
1
 42
2.0
291
1
 43
8.0
  3
Standard
 44
4.0
300

342
29
174
1
175
1
176
0
178
1
 93
-1056964608
 45
4.0
292
0
297
0
 46
4.0
 94
-1056964608
 47
1.0
 49
1.0
140
1.0
294
1
141
0.0
177
0
142
1.0
295
0
296
0
143
3.75
271
0
272
9
273
9
  0
DICTIONARY
  5
2D
330
A
100
AcDbDictionary
280
1
281
1
  3
CREATED_BY_EZDXF
350
2E
  3
WRITTEN_BY_EZDXF
350
66
  0
DICTIONARYVAR
  5
2E
330
2D
100
DictionaryVariables
280
0
  1
1.4.3 @ 2026-03-14T20:39:58.302609+00:00
  0
DICTIONARYVAR
  5
66
330
2D
100
DictionaryVariables
280
0
  1
1.4.3 @ 2026-03-14T20:39:58.305624+00:00
  0
ENDSEC
  0
EOF
